<svg width="22" height="25" viewBox="0 0 22 25" fill="none" xmlns="http://www.w3.org/2000/svg">
<path d="M21.0347 1.56251H15.1917L14.734 0.649422C14.637 0.454214 14.4877 0.29001 14.3028 0.175281C14.1178 0.0605526 13.9046 -0.00014785 13.6871 8.56089e-06H8.12172C7.90474 -0.000827891 7.69191 0.0596462 7.50762 0.174502C7.32334 0.289359 7.17504 0.453951 7.07972 0.649422L6.62202 1.56251H0.779062C0.572442 1.56251 0.374284 1.64482 0.228182 1.79133C0.0820795 1.93784 0 2.13656 0 2.34376L0 3.90626C0 4.11346 0.0820795 4.31217 0.228182 4.45868C0.374284 4.6052 0.572442 4.68751 0.779062 4.68751H21.0347C21.2413 4.68751 21.4394 4.6052 21.5855 4.45868C21.7316 4.31217 21.8137 4.11346 21.8137 3.90626V2.34376C21.8137 2.13656 21.7316 1.93784 21.5855 1.79133C21.4394 1.64482 21.2413 1.56251 21.0347 1.56251ZM2.59038 22.8027C2.62754 23.3978 2.88942 23.9562 3.32273 24.3644C3.75603 24.7726 4.32817 24.9999 4.9227 25H16.891C17.4856 24.9999 18.0577 24.7726 18.491 24.3644C18.9243 23.9562 19.1862 23.3978 19.2233 22.8027L20.2556 6.25001H1.55812L2.59038 22.8027Z" fill="#EDA500"/>
</svg>
